<svg id="Layer_1" xmlns="http://www.w3.org/2000/svg" width="50" height="50" viewBox="0 0 50 50"><style>.st0{fill:#7A7A7A;} .st1{fill:#3999C6;} .st2{opacity:0.2;fill:#FFFFFF;enable-background:new ;}</style><path class="st0" d="M35 16.8H8.2c-1 0-2-1-2-2s1-2 2-2H35c1 0 2 1 2 2s-1 2-2 2zM29.5 33.5H5c-1.2 0-2-1-2-2s.8-2 2-2h24.5c1 0 2 1 2 2s-1 2-2 2zM26.6 25.4H2c-1 0-2-1-2-2s1-2 2-2h24.6c1 0 2 1 2 2s-1 2-2 2z"/><path class="st1" d="M50 29.2c0-2.4-2-4.3-4.2-4.3h-.6c.2-1 .4-2 .4-3 0-6.3-5-11.3-11.2-11.3-5 0-9 3.3-10.6 7.6-.8-.2-1.6-.4-2.5-.4-4.3 0-7.6 3.4-7.6 7.7s3.4 7.8 7.6 7.8H46c2.3-.3 4-2 4-4.3"/><path class="st2" d="M25.3 33.4c-1-1-1.8-2.2-2-3.8-1-4.2 1.5-8.3 5.6-9.2.8-.2 1.6-.2 2.5 0 .3-4 2.7-7.4 6.3-9-1-.4-2.2-.7-3.4-.7-5 0-9 3.3-10.6 7.6-.8-.2-1.6-.4-2.5-.4-4.3 0-7.6 3.4-7.6 7.7s3.4 7.8 7.6 7.8h4z"/></svg>