<svg xmlns="http://www.w3.org/2000/svg" width="50" height="50" viewBox="0.5 0.5 50 50"><path fill="#59B4D9" d="M.5 45c0 1.2 1 2 2 2h46c1 0 2-.8 2-2V14H.5V45z"/><path fill="#A0A1A2" d="M48.5 4.5h-46c-1 0-2 1-2 2V17h50V6.6c0-1-1-2-2-2"/><path opacity=".2" fill="#FFF" d="M2.5 4.5c-1 0-2 1-2 2V45c0 1.2 1 2 2 2h2.2L44 4.6H2.6z"/><path fill="#FFF" d="M13.4 9.3H47v4H13.5z"/><path fill="#59B4D9" d="M11.8 11.2c0 2.7-2.2 5-5 5-2.6 0-4.7-2.3-4.7-5s2.2-5 5-5c2.6 0 4.8 2.3 4.8 5"/><path fill="#FFF" d="M6.4 11.7L8.6 14H7.4l-3-2.8 3-2.8h1.2l-2.2 2.4h5.4v1M18 36.6c0 .5-.3 1-.7 1.4s-1 .5-1.6.5c-.6 0-1-.2-1.5-.5s-.6-1-.6-1.4c0-.6.2-1 .6-1.4s1-.5 1.6-.5c.6 0 1 0 1.5.5s.6.8.6 1.4zM26.8 36.6c0 .5-.2 1-.6 1.4s-1 .5-1.6.5c-.6 0-1-.2-1.5-.5s-.5-1-.5-1.4c0-.6.2-1 .6-1.4s1-.5 1.7-.5c.6 0 1 0 1.5.5s.6.8.6 1.4zM35.7 36.6c0 .5-.2 1-.6 1.4s-.8.5-1.5.5c-.6 0-1-.2-1.5-.5s-.6-1-.6-1.4c0-.6.2-1 .6-1.4s1-.5 1.6-.5c.6 0 1 0 1.5.5s.7.8.7 1.4z"/></svg>