<svg xmlns="http://www.w3.org/2000/svg" width="50" height="50" viewBox="0 0 50 50"><path fill="#59B4D9" d="M21.7 0h6.7v5h-6.7zM11.7 0h6.7v5h-6.7zM45 45h-3.3v5h5c1.8 0 3.3-1.5 3.3-3.3v-5h-5V45zM0 31.7h5v6.7H0zM21.7 45h6.7v5h-6.7zM45 31.7h5v6.7h-5zM31.7 45h6.7v5h-6.7zM11.7 45h6.7v5h-6.7zM5 45v-3.3H0v5C0 48.5 1.5 50 3.3 50h5v-5H5zM0 11.7h5v6.7H0zM5 5h3.3V0h-5C1.5 0 0 1.5 0 3.3v5h5V5zM0 21.7h5v6.7H0zM45 21.7h5v6.7h-5zM45 11.7h5v6.7h-5zM31.7 0h6.7v5h-6.7zM45 5v3.3h5v-5C50 1.5 48.5 0 46.7 0h-5v5H45z"/><path fill="#A0A1A2" d="M35.3 9H10c-1 0-1.6.7-1.6 1.6v17.7C8.4 29 9 30 10 30h25.3c1 0 1.8-1 1.8-1.7V10.6c0-1-.8-1.6-1.7-1.6"/><path opacity=".2" fill="#FFF" d="M35.3 9H10c-1 0-1.6.7-1.6 1.6v17.7C8.4 29 9 30 10 30h.6L35.3 9z"/><path fill="#59B4D9" d="M35 27.7H10.5V11.2H35"/><path fill="#B8D432" d="M23 10.2c0 .2-.2.4-.4.4s-.4-.2-.4-.4c0-.3.2-.4.4-.4s.4 0 .4.4"/><path fill="#FFF" d="M23 19l-5-3h-.2v-.3l5-3h.3l5 3c.2 0 .2 0 .2.2l-5 3H23"/><path fill="#7A7A7A" d="M31.5 35.5h-7.7c1 3.3-.3 3.8-5.8 3.8V41h18.6v-1.7c-5.5 0-6-.5-5-3.8"/><path fill="#A0A1A2" d="M40 14.6H14.4c-1 0-1.6.8-1.6 1.6V34c0 .8.6 1.5 1.5 1.5H40c.7 0 1.6-.7 1.6-1.6V16c0-.8-1-1.6-1.7-1.6"/><path opacity=".2" fill="#FFF" d="M40 14.6H14.4c-1 0-1.6.8-1.6 1.6V34c0 .8.6 1.5 1.5 1.5h.6l25-21z"/><path fill="#59B4D9" d="M39.4 33.3H15V16.8h24.4"/><path fill="#A0A1A2" d="M18 39.3h18.6V41H18z"/><path fill="#B8D432" d="M27.6 15.8c0 .2-.2.4-.4.4-.3 0-.4-.2-.4-.4s0-.4.4-.4c.2 0 .4.2.4.4"/><path fill="#FFF" d="M27.6 24.6l-5-3h-.2v-.2l5-3h.2l5 3h.2v.3l-5 3h-.2"/><path opacity=".7" fill="#FFF" d="M27 31.6h-.2l-5-3v-5.8-.2l5 3h.2v6"/><path opacity=".4" fill="#FFF" d="M28.3 31.6H28v-6h.2l5-3h.2v6l-5 3"/></svg>