<svg xmlns="http://www.w3.org/2000/svg" width="50" height="50" viewBox="0 0 50 50"><path fill="#59B4D9" d="M40.2 44.8C35.7 48.3 30.2 50 25 50c-7.5 0-15-3.4-19.8-9.8-8.4-11-6.4-26.7 4.6-35C14.3 1.6 19.8 0 25 0c7.5 0 15 3.4 19.8 9.8 8.4 11 6.4 26.6-4.6 35"/><path fill="#FFF" d="M35.6 29.4c1.8 2.3 5.2 2.8 7.5 1 .3 0 .4-.2.5-.3 2.4 1.8 4 3 5 3.5l.7-2c-1-1-2.4-2-4.3-3.5.5-1.6.3-3.6-1-5-1.5-2.3-4.5-2.8-6.8-1.5L29 13.7c9-5 15.6-4.3 15.6-4.3-1-1.3-2.3-2.6-3.6-3.7-4-.5-10-.5-16.7 3.2-2.3-2.5-4.7-5-7-7.8C16 1.5 15 2 14 2.5c1.7 3 4 5.7 6.7 8.6-2.2 1.6-4.6 3.7-7 6l-.8 1c-1.4-.3-2.8-.2-4.2.3-2.2-5-2-8.8-1.7-10.8-1 1-1.8 2-2.6 3.2-.6 2.5-.7 6 1 10-2 2.8-2 6.5 0 9.3l.6.6c-1 3.2-1.4 6.2-1.5 8.8l.5 1c1.2 1.4 2.7 2.7 4 4 0-2.8 0-7 1.8-11.5 1.2 0 2.4-.2 3.5-.6l2 1.7c2.5 2 5 3.5 7.3 4.7 0 1.2.2 2.5 1 3.5 1.7 2.2 4.8 2.6 7 1 .4-.4.8-.8 1-1.3 4 .8 7.4 1 10 1 .3 0 2-2.5 3-4-1.4.3-6 1-12.2-.8-.2-.7-.4-1.4-1-2-1.5-2-4.4-2.5-6.5-1-2.3-1.3-4.5-2.8-7-4.6-.3-.4-.8-.8-1.2-1 1.4-2.4 1.5-5.3.3-7.7l1-1c2.3-2 4.4-3.8 6.5-5.2l-.3-.3.3.3c3 3 6.4 5.6 9.5 8-.8 1.8-.7 4 .6 5.6z"/></svg>