<svg xmlns="http://www.w3.org/2000/svg" viewBox="0 0 50 50"><path fill="#59B4D9" d="M35 39c-4 3-8.7 4.4-13.3 4.4-6.5 0-13-3-17.2-8.5-7.3-9.6-5.5-23.2 4-30.5 4-3 8.6-4.5 13.2-4.5 6.5 0 13 3 17.2 8.5 7.2 9.5 5.4 23-4 30.4"/><path fill="#59B4D9" d="M35 39c-4 3-8.7 4.4-13.3 4.4-6.5 0-13-3-17.2-8.5-7.3-9.6-5.5-23.2 4-30.5 4-3 8.6-4.5 13.2-4.5 6.5 0 13 3 17.2 8.5 7.2 9.5 5.4 23-4 30.4"/><path fill="#FFF" d="M31 25.5c1.5 2 4.4 2.4 6.4 1 0-.2.2-.3.3-.4 2 1.6 3.7 2.7 4.5 3.2l.6-2c-1-.5-2.2-1.6-4-3 .7-1.4.5-3-.5-4.4-1.4-2-4-2.4-6-1.2L25 11.8C33 7.5 38.8 8 38.8 8c-1-1-2-2.2-3-3C32 4.4 27 4.4 21 7.6c-2-2-4-4.3-6-6.7l-3 1.2c1.6 2.5 3.7 5 6 7.4l.3.3c0-.2-.2-.3-.3-.4-2 1.4-4 3-6 5.2l-.7.8c-1.2-.2-2.4-.2-3.6.2-2-4.2-1.8-7.6-1.5-9.4-1 1-1.7 2-2.4 3-.5 2-.7 5 1 8.7-2 2.4-2 5.6 0 8 0 .2.2.4.4.6C4.4 29.3 4 32 4 34.2c0 .3 0 .5.3.8 1 1.3 2.4 2.6 3.6 3.6-.3-2.4 0-6 1.4-10 1 0 2 0 3-.5l1.8 1.6c2 1.7 4.3 3 6.3 4 0 1 .2 2 .8 3 1.5 2 4.2 2.3 6 1 .5-.4.8-.8 1-1.2 3.5.8 6.4 1 8.6 1 .2 0 1.8-2.2 2.7-3.5-1.3.2-5.3.7-10.7-.8 0-.6-.4-1.2-.8-1.7-1.4-1.8-4-2.2-5.7-1-2-1-3.8-2.3-6-4-.3-.2-.7-.5-1-1 1-2 1.3-4.4.2-6.5l.8-.7c2-1.8 4-3.4 5.7-4.5 2.7 2.5 5.6 5 8.3 7-.8 1.4-.7 3.3.4 4.7z"/><path fill="#7A7A7A" d="M50 38.4v-3h-.4l-3.2-1-.8-2 1.6-3.5-2-2.2-.5.2-3 1.5-2-.8-1.3-3.6h-3v.5l-1 3.2-2 .8-3.5-1.6-2.2 2 .2.4 1.5 3-.8 2-3.7 1.2v3h.4l3.2 1 .8 2-1.6 3.5 2 2.2.5-.2 3-1.5 2 .8 1.3 3.6h3v-.5l1-3.2 2-.8 3.5 1.6 2.2-2-.2-.4-1.5-3 .8-2 3.7-1.2zm-13 3.3c-2.6 0-4.7-2-4.7-4.7 0-2.6 2-4.7 4.7-4.7 2.6 0 4.7 2 4.7 4.7 0 2.6-2 4.7-4.7 4.7z"/></svg>