<svg xmlns="http://www.w3.org/2000/svg" width="50" height="50" viewBox="0 0 50 50"><path fill="#59B4D9" d="M8 28.4c-2 0-3.6-.4-4.5-1-1-1-1.3-2.2-1.3-4v-3.5c0-1.8-.7-2.7-2-2.7v-2.6c1.3 0 2-1 2-2.7V8.8c0-2 .4-3.3 1.3-4S6 3.5 8 3.5v2.6c-1.5 0-2.3.8-2.3 2.5v3c0 2.3-.7 3.7-2.2 4.3 1.4.6 2.2 2 2.2 4.3v3c0 .8.2 1.5.5 2 .4.3 1 .5 1.7.5v2.6zM42 21.6c2 0 3.6.4 4.5 1 1 1 1.3 2.2 1.3 4v3.5c0 1.8.7 2.7 2 2.7v2.6c-1.3 0-2 1-2 2.7v3c0 2-.4 3.4-1.3 4.2-1 .8-2.4 1.2-4.5 1.2v-2.6c1.5 0 2.3-.8 2.3-2.5v-3c0-2.3.7-3.7 2.2-4.3-1.4-.6-2.2-2-2.2-4.3v-3c0-.8-.2-1.5-.5-2-.4-.3-1-.5-1.7-.5v-2.6z"/><path fill="#A0A1A2" d="M25.7 27H13c-1.4 0-2.5-1-2.5-2s1-2 2.4-2h12.7c1.4 0 2.4.8 2.4 2s-1 2-2.3 2zM36.7 36H17c-1.4 0-2.5-1-2.5-2s1-2 2.4-2h19.7c1.4 0 2.4 1 2.4 2s-1 2-2.3 2zM36.7 17H13c-1.4 0-2.5-1-2.5-2s1-2 2.4-2h23.7c1.4 0 2.4 1 2.4 2s-1 2-2.3 2zM32.7 7.6H13c-1.4 0-2.5-1-2.5-2s1-2 2.4-2h19.7c1.4 0 2.4.8 2.4 2s-1 2-2.3 2zM31.7 46.4H17c-1.4 0-2.5-1-2.5-2s1-2 2.4-2h14.7c1.3 0 2.4.8 2.4 2 0 1-1 2-2.3 2z"/></svg>