<svg xmlns="http://www.w3.org/2000/svg" height="50" width="50" viewBox="0 0 50 50"><path fill-rule="evenodd" clip-rule="evenodd" fill="#7A7A7A" d="M39 23.2H11c-1.3 0-2.4 1-2.4 2.5v10.7l4 1V27.2h24.8v10.4l4-1V25.6c0-1.5-1.2-2.5-2.3-2.5z"/><path fill-rule="evenodd" clip-rule="evenodd" fill="#7A7A7A" d="M23 16.4h4v10.4h-4z"/><path fill-rule="evenodd" clip-rule="evenodd" fill="#59B4D9" d="M31.3 0H18.7c-1.3 0-2.4 1-2.4 2.4V14c0 1.4 1 2.5 2.4 2.5h12.5c1.3 0 2.4-1 2.4-2.4V2.5c0-1.3-1-2.4-2.3-2.4zM16.8 33.4H4.3c-1.3 0-2.4 1-2.4 2.4v11.7C2 48.8 3 50 4.2 50h12.5c1.3 0 2.4-1.2 2.4-2.5V35.8c0-1.3-1-2.4-2.4-2.4zM45.7 33.4H33.2c-1.3 0-2.4 1-2.4 2.4v11.7c0 1.3 1 2.4 2.4 2.4h12.5c1.3 0 2.4-1.2 2.4-2.5V35.8c.2-1.3-1-2.4-2.3-2.4z"/></svg>