<svg xmlns="http://www.w3.org/2000/svg" width="50" height="50" viewBox="0 0 50 50"><path fill="#A0A1A2" d="M46.3 23.3v-1L50 20c-.2-1-.5-2.3-1-3.5h-4.3l-1-1.8 2-3.7c-.7-1-1.5-2-2.5-2.7L41 9.6 40 11l-2 3c3 2 4.7 5.5 4.7 9.3 0 6.6-5.3 12-12 12-6.5 0-11.8-5.4-11.8-12 0-6 4.2-10.7 9.8-11.7l1-3.7-2.2-4L24 5v4.4l-2 1-3.6-2c-1 .7-1.8 1.6-2.6 2.6l2.2 3.7c-.4.6-.8 1.2-1 2l-4.4-.2c-.4 1.2-.8 2.4-1 3.6l3.8 2.2v2.3l-3.8 2c.2 1.3.6 2.5 1 3.7H17l1 1.8-2.2 3.7c.8 1 1.7 2 2.6 2.7l3.7-2.2 2 1v4.4l3.6 1 2-3.8H32l2.2 3.7c1.3-.2 2.5-.5 3.6-1v-4.2l2-1 3.6 2c1-.7 1.8-1.6 2.6-2.6L43.6 32c.4-.6.8-1.2 1-2l4.4.2c.5-1.2.8-2.4 1-3.7l-3.8-2v-1.2z"/><path fill="#7A7A7A" d="M16 39.7v-2l-2-.7-.5-1.2 1-2-.5-.7-.8-.6H13l-2 1-1-.3-1-2H7.2l-.7 2-1.3.5-2.2-1-1.3 1.2v.3l1 1.8-.5 1.3L0 38v1.8h.3l2 .7.5 1.3-1 2.2L3 45.3h.3l2-1 1.2.4.8 2.3H9l.2-.3.7-2 1-.5 2.3 1 1.3-1.3v-.3l-1-2 .3-1.2 2-.8zm-7.8 1.7c-1.5 0-2.6-1-2.6-2.6s1-2.6 2.6-2.6 2.6 1.2 2.6 2.6-1.2 2.6-2.6 2.6z"/><path fill="#FCD116" d="M33.3 1.7L32.6 4l-1.3 4-.6 1.8-.5 1.6L26.6 23s0 .3.3.3h3.5v.4L27 32c0 .2 0 .2.2 0L38 19.7c.2 0 0-.3 0-.3h-4.3c-.2 0-.3 0-.2-.3l3.4-6 .7-1.4 1-1.6 1.8-3.5 1.2-2C39.2 3 36.3 2 33.3 1.7z"/><path opacity=".3" fill="#FF8C00" d="M39.5 3.4l-7.8 16h2c-.3 0-.3 0-.2-.3l3.3-6 .8-1.4 1-1.6 2-3.5 1-2-2-1zM38 19.4h-2.3l-8 12.2 10.4-12c.2 0 .2-.2 0-.2z"/></svg>