<svg xmlns="http://www.w3.org/2000/svg" width="50px" height="50px"><path fill="#A0A1A2" d="M36 0H2L0 2v24l2 2h34l2-2V2l-2-2"/><path opacity="0.2" fill="#FFF" d="M36 0H2L0 2v24l2 2h1L36 0z"/><path fill="#59B4D9" d="M35 25H3V3h32z"/><path fill="#B8D432" d="M19 2a1 1 0 1 1-1 0 1 1 0 0 1 1 0"/><path fill="#FFF" d="M19 13l-6-4 6-4 7 4-6 4h-1"/><path fill="#A0A1A2" d="M42 7H8c-1 0-2 1-2 3v23l2 2h34l2-2V10c0-2-1-3-2-3"/><path opacity="0.2" fill="#FFF" d="M42 7H8c-1 0-2 1-2 3v23l2 2h1L42 7z"/><path fill="#59B4D9" d="M41 32H9V10h32z"/><path fill="#B8D432" d="M25 9a1 1 0 1 1-1 0 1 1 0 0 1 1 0"/><path fill="#FFF" d="M25 21l-6-4h-1l1-1 6-3 7 3v1l-7 4"/><path fill="#7A7A7A" d="M37 43H26c2 4 0 5-7 5v2h24v-2c-7 0-8-1-6-5"/><path fill="#A0A1A2" d="M48 15H14l-2 2v24l2 2h34l2-2V17l-2-2"/><path opacity="0.2" fill="#FFF" d="M48 15H14l-2 2v24l2 2h1l33-28z"/><path fill="#59B4D9" d="M47 40H15V18h32z"/><path fill="#A0A1A2" d="M19 48h25v2H19z"/><path fill="#B8D432" d="M31 17a1 1 0 1 1-1 0 1 1 0 0 1 1 0"/><path fill="#FFF" d="M31 28l-6-4 6-4 7 4-6 4h-1"/><path opacity="0.7" fill="#FFF" d="M30 38l-6-4v-8l7 3v9h-1"/><path opacity="0.4" fill="#FFF" d="M32 38v-8-1l7-3v8l-7 4"/></svg>