<svg xmlns="http://www.w3.org/2000/svg" width="50" height="50" viewBox="0 0 50 50"><path fill="#3999C6" d="M46.3 45l-1-32.6H4L3 47l36.7 3 3-2.3"/><path opacity=".3" fill="#FFF" d="M42.7 12.4h-3V50l3-5.7"/><path opacity=".2" fill="#1E1E1E" d="M42.7 44.3l-3 5.7 3-2.3 3.6-2.8"/><path fill="#FFF" d="M33 34.2c0-1.5-1.2-2.8-2.7-2.8H30l.2-2c0-4-3.4-7.4-7.5-7.4-3.2 0-6 2-7 5L14 27c-2.8 0-5 2.3-5 5 0 3 2.2 5.2 5 5.2h16.5c1.4 0 2.5-1.3 2.5-2.8"/><path fill="#A0A1A2" d="M23.4 6.8c0-2.5 2.2-4.5 4.8-4.5 2.6 0 4.8 2 4.8 4.5v5.6h2.3V6.8C35.3 3 32 0 28.3 0c-4 0-7.2 3-7.2 6.8v5.6h2.4V6.8z"/><path fill="#7A7A7A" d="M16.4 6.8c0-2.5 2-4.5 4.7-4.5 2.8 0 5 2 5 4.5v5.6H28V6.8C28.2 3 25 0 21.2 0c-4 0-7 3-7 6.8v5.6h2.2V6.8z"/></svg>