<svg xmlns="http://www.w3.org/2000/svg" height="50px" width="50px"><path fill="#7FBA00" d="M50 37.2c0 5-11.2 9.05-25 9.05S0 42.2 0 37.2v-4.88h50v4.88z"/><path fill="#B8D432" d="M50 32.32c0 5-11.2 9.05-25 9.05S0 37.32 0 32.32c0-5 11.2-9.06 25-9.06s25 4.06 25 9.06"/><path fill="#7FBA00" d="M33.01 31.8c0 1.33-3.58 2.4-8.01 2.4s-8.02-1.07-8.02-2.4 3.6-2.41 8.02-2.41S33 30.47 33 31.79"/><path opacity="0.25" fill="#FFF" d="M43.07 26.11c-3.5-1.32-8.1-2.26-13.28-2.63l-3.24 6c1.6.1 3.02.33 4.12.67l12.4-4.04zM5.9 38.2c3.6 1.55 8.6 2.65 14.29 3.05l3.8-7.02a20.36 20.36 0 0 1-4.17-.55L5.9 38.21z"/><path fill="#0072C6" d="M50 17.68c0 5-11.2 9.06-25 9.06S0 22.68 0 17.68V12.8h50v4.88z"/><path fill="#59B4D9" d="M50 12.8c0 5-11.2 9.06-25 9.06S0 17.8 0 12.8s11.2-9.05 25-9.05S50 7.8 50 12.8"/><path fill="#0072C6" d="M33.01 12.28c0 1.33-3.58 2.4-8.01 2.4s-8.02-1.07-8.02-2.4 3.6-2.4 8.02-2.4S33 10.94 33 12.27"/><path opacity="0.25" fill="#FFF" d="M43.07 6.55c-3.5-1.33-8.1-2.27-13.28-2.63l-3.24 6c1.6.1 3.02.33 4.12.66l12.4-4.03zM5.9 18.64c3.6 1.54 8.6 2.64 14.29 3.05l3.8-7.02a20.36 20.36 0 0 1-4.17-.56L5.9 18.64z"/></svg>