<svg xmlns="http://www.w3.org/2000/svg" width="50" height="50" viewBox="-374 616 50 50"><circle fill="#0072C6" cx="-349" cy="641" r="25"/><path opacity=".2" fill="#FFF" d="M-366.7 658.7c-9.7-9.8-9.7-25.6 0-35.4 9.8-9.7 25.6-9.7 35.4 0l-35.4 35.4z"/><path opacity=".8" fill="#FFF" d="M-326 641c0-5.2-1.7-10-5-14.2l-.2-.2v-.2l-1.6-1.6c-4.3-4.4-10-6.8-16.2-6.8h-.2c-6 0-11.7 2.4-16 6.7l-1.6 1.7v.2h-.3c-3.3 4.2-5 9.2-5 14.4 0 5 1.7 10 5 14.2h.2v.4l1.6 1.6c4.3 4.3 10 6.7 16 6.7h.2c6 0 12-2.5 16.2-6.8l1.5-1.7v-.2l.3-.2c3.3-3.8 5-9 5-14zm-9.3-15h-.3l-.4.3-1.3.4h-.3c-.5.3-1 .4-1.6.6h-.3c-1-2-2-4-3-5.5 2.6.8 5 2.3 7.2 4.2zm-14-5.3h.2c2.4 0 5 2.6 6.8 7.2-2 .3-4.4.5-6.8.5s-4.8-.2-7-.6c1.8-4.6 4.3-7.2 6.8-7.3zm-6.4 1.2c-1 1.3-2 3.2-3 5.4l-1.7-.5-.3-.2-1.2-.5s-.2 0-.3-.2h-.4c2-1.8 4.4-3.3 7-4zm-7 34h.3l.4-.3 1.3-.4h.3c.5-.3 1-.4 1.6-.6 1 2 2 4 3 5.5-2.5-1-5-2.4-7-4.2zm13.6 5.3h-.2c-2.5 0-5-2.6-6.8-7 2.2-.5 4.6-.7 7-.7s4.6.2 6.8.6c-1.7 4.5-4.4 7-7 7zm6.4-1c1.2-1.5 2.2-3.5 3-5.7h.4l1.6.6h.3l1.3.5.4.2h.4c-2.2 2-4.7 3.4-7.4 4.2zm9.3-6.4l-.7-.3c-.3 0-.6-.3-1-.4h-.2c-1-.5-2.3-.8-3.5-1.2.3-1 .6-2 .7-3.2h-2.7l-.7 2.8c-2.4-.5-5-.7-7.6-.7-2.8 0-5.3.2-7.8.7l-.7-3h-2.7l.7 3.5-3.2 1s-.3 0-.4.2c-.4 0-.7.3-1 .4-.2 0-.5 0-.6.2-2.8-3.3-4.4-7.5-4.6-11.7h2.3v-2.7h-2.2c.2-4.2 1.8-8.3 4.5-11.5l.7.3 1 .5h.3c1 .4 2 .8 3.3 1l-.6 3h2.7l.6-2.4c2.5.5 5 .8 7.8.8s5.3-.3 7.7-.7l.6 2.5h2.7c0-1-.3-2-.6-3l3.4-1 .4-.2c.3 0 .6-.3 1-.4l.6-.3c2.7 3.4 4.3 7.5 4.6 11.7h-2.7v2.7h2.7c-.4 4-2 8.3-4.7 11.5z"/><path fill="#FFF" d="M-354.8 641c0 1 0 2-.4 2.7-.3.7-.7 1.4-1.2 1.8-.6.5-1.2 1-2 1-.7.4-1.6.5-2.7.5h-3s-.3 0-.4-.2c-.2 0-.3-.3-.3-.6v-10.4c0-.2 0-.4.3-.5 0-.2.3-.2.5-.2h3c1.2 0 2 .2 2.8.5.7.2 1.4.6 2 1 .4.6.8 1.2 1 2 .3.6.4 1.4.4 2.4zm-2.5 0c0-.6 0-1-.2-1.6 0-.5-.3-1-.6-1.3l-1.2-.7c-.5-.2-1-.3-1.8-.3h-1.2v8h1.2c.7 0 1.2 0 1.7-.2.4-.2.8-.4 1-.8s.6-.7.8-1.3l.2-1.8zM-343 646v.5l-.3.3h-.3c0 .2-.2.2-.3.2h-1-.5l-.4-.3-.3-.5-.4-.7-3-5.6c0-.4-.3-.8-.5-1l-.5-1.3v9.2c-.2.2-.3.2-.5.2H-352.6v-.2c-.2 0-.2 0-.2-.2V636c0-.3 0-.6.3-.7l.6-.2h2c0 .2.3.3.4.3l.3.4c0 .2.3.4.4.6l2.4 4.4.4.7.4.8c0 .3.2.5.3.8l.4.7-.2-1.3v-7c0-.2.2-.2.3-.2h1.9V646.2zM-333.4 643.4c0 .6 0 1.2-.3 1.7-.2.5-.6 1-1 1.2-.4.3-.8.6-1.4.7l-1.8.2h-1l-1-.4c-.3 0-.5-.2-.7-.3l-.4-.2v-.4-.7-.5-.3-.2H-340.3c0 .2.3.3.6.4.2.2.5.3 1 .4.2.2.6.2 1 .2h.8c.3 0 .5-.2.6-.4.2 0 .3-.3.4-.4v-.7-.7l-.7-.5-.8-.4-1-.3-.8-.5-.8-.7c-.4-.3-.6-.6-.7-1l-.2-1.2c0-.6.2-1 .4-1.5.2-.4.5-.8.8-1 .4-.4.8-.6 1.3-.7h3.3l.7.4s.3 0 .3.2h.2v1.6l-.2.2h-.2-.3l-.5-.3-.8-.3c-.3-.2-.6-.2-1-.2h-.6c-.2 0-.3.2-.5.3l-.4.5v1.2l.7.5.8.5c.5 0 .8.2 1 .4l1 .6.8.6c.3.3.5.6.6 1 .2.3.2.7.2 1.2z"/></svg>