<svg xmlns="http://www.w3.org/2000/svg" width="50" height="50" viewBox="0 0 50 50"><path fill="#7FBA00" d="M25 50c-1.2 0-2.4-.5-3.3-1.4L1.4 28.3c-1-1-1.4-2-1.4-3.3 0-1.2.5-2.4 1.4-3.3L21.7 1.4c1-1 2-1.4 3.3-1.4 1.2 0 2.4.5 3.3 1.4l20.3 20.3c1 1 1.4 2 1.4 3.3 0 1.2-.5 2.4-1.4 3.3L28.3 48.6c-1 1-2 1.4-3.3 1.4"/><path fill="#FFF" d="M45.6 24.7L39 18v4.7h-7c-.7-2.4-2.6-4.3-5-5V11h4.6L25 4.4 18.4 11H23v6.7c-2.4.7-4.3 2.6-5 5h-7V18l-6.6 6.7 6.6 6.6v-4.7h7c.7 2.4 2.6 4.3 5 5v4.7c-1 .7-2.5 2.2-2.5 4 0 2.5 2 4.5 4.5 4.5s4.5-2 4.5-4.5c0-1.8-1.5-3.3-2.5-4v-4.7c2.4-.7 4.3-2.6 5-5h7v4.7l6.6-6.6z"/><path fill="#59B4D9" d="M25 19.4c-3 0-5.3 2.4-5.3 5.3S22 30 25 30s5.3-2.4 5.3-5.3-2.4-5.3-5.3-5.3z"/><path opacity=".1" fill="#FFF" d="M28.3 1.4c-1-1-2-1.4-3.3-1.4-1.2 0-2.4.5-3.3 1.4L1.4 21.7c-1 1-1.4 2-1.4 3.3 0 1.2.5 2.4 1.4 3.3L13 39.8l21.6-32-6.3-6.4z"/></svg>