<svg xmlns="http://www.w3.org/2000/svg" width="101" height="37" viewBox="0 0 101 37"><path fill="#FFF" d="M39 19.8l-.4 1.3c-.2-.2-.3-.6-.5-1.2l-2.5-6.4H33v10.2h1.7v-6.2V16v-.7c0 .4 0 .7.2 1l3 7.3h1l3-7.5c.2 0 .3-.4.3-.7v8.4H44V13.4h-2.4L39 19.8zM45.7 16.3h1.7v7.3h-1.7zM46.6 13.2c-.3 0-.6 0-.8.3-.2.2-.3.4-.3.7 0 .3 0 .5.3.7l.8.2c.2 0 .5 0 .7-.3.2-.3.3-.5.3-.8 0-.2 0-.5-.3-.7-.2-.2-.4-.3-.7-.3zM53.5 16.2h-1c-.8 0-1.5 0-2 .4-.7.4-1 1-1.5 1.5-.3.7-.4 1.4-.4 2 0 .8 0 1.5.4 2 .3.6.8 1 1.3 1.3.6.3 1.2.5 2 .5.7 0 1.4-.2 2-.5v-1.6l-1 .5-.8.2c-.6 0-1.2-.3-1.6-.7-.5-.4-.6-1-.6-1.7s.2-1.3.6-1.8c.4-.4 1-.6 1.6-.6.5 0 1 .2 1.6.5v.2-1.7l-.7-.3zM59 16.2c-.3 0-.7 0-1 .4-.3.2-.5.6-.7 1v-1.3h-1.7v7.3h1.7V20c0-.8 0-1.3.4-1.7.3-.4.7-.6 1-.6h.6l.4.3v-1.7h-.6zM63.8 16c-1.2 0-2.2.5-3 1.2-.6.7-1 1.6-1 2.8 0 1.2.4 2 1 2.8.8.6 1.7 1 2.8 1 1 0 2-.4 2.8-1 .6-.8 1-1.7 1-3 0-1-.3-2-1-2.7-.6-.5-1.5-1-2.6-1zm1.3 5.7c-.2.5-.7.7-1.3.7-.7 0-1-.3-1.5-.7-.4-.4-.5-1-.5-1.7 0-.8 0-1.4.5-1.8.4-.4.8-.6 1.5-.6.6 0 1 .2 1.4.6.4.4.6 1 .6 1.7s-.2 1.3-.5 1.7zM71.2 19.3l-1-.5c-.2 0-.3-.3-.3-.6 0-.2 0-.4.2-.5l.7-.2h.8l.8.5v-1.5L72 16h-1c-.8 0-1.5.2-2 .6-.5.4-.8 1-.8 1.6 0 .3 0 .6.2 1l.5.6 1 .5.8.5c.2 0 .3.2.4.3v.4c0 .5-.2.7-1 .7-.3 0-.6 0-1-.2-.3 0-.6-.2-1-.5v1.7l1 .3h1c.8 0 1.5 0 2-.6.6-.3.8-.8.8-1.5 0-.5 0-1-.4-1.3l-1.4-1zM77.6 16c-1.2 0-2 .5-2.8 1.2-.7.7-1 1.6-1 2.8 0 1.2.3 2 1 2.8.7.6 1.6 1 2.7 1 1 0 2-.4 2.8-1 .6-.8 1-1.7 1-3 0-1-.3-2-1-2.7-.6-.5-1.5-1-2.7-1zm1.4 5.7c-.3.5-.8.7-1.4.7-.7 0-1.2-.3-1.5-.7-.3-.4-.4-1-.4-1.7 0-.8 0-1.4.5-1.8.4-.4 1-.6 1.6-.6.6 0 1 .2 1.4.6.3.4.5 1 .5 1.7s-.2 1.3-.5 1.7zM90.4 17.7v-1.4h-1.7V14v.2l-1.7.5v1.6h-2.6v-1c0-.3 0-.6.3-1l.8-.2.7.3v-1.5h-1c-.4 0-1 0-1.3.2-.5.2-.8.6-1 1-.2.3-.3.8-.3 1.3v1h-1.3v1.4h1.3v6h1.7v-6H87v3.8c0 1.5.7 2.3 2 2.3h.8l.6-.3V22l-.4.3h-.4c-.3 0-.5 0-.7-.2-.2 0-.3-.4-.3-.8v-3.5h1.7zM11 10h8v8h-8zM20 10h8v8h-8zM11 19h8v8h-8zM20 19h8v8h-8z"/></svg>