<svg xmlns="http://www.w3.org/2000/svg" width="50" height="50" viewBox="0 0 50 50"><path fill="#3999C6" d="M38.2 6c-11-1.2-13-6-13-6S23 6.2 7 6.2v25.6c0 3 1.7 6 4 8.5C16.6 46 25.4 50 25.4 50s18.3-8 18.3-18.2V6.2c-2 0-3.8 0-5.4-.2z"/><path opacity=".4" fill="#59B4D9" d="M30 16.5L38 6c-11-1.2-13-6-13-6S23 6.2 7 6.2v25.6c0 3 1.7 6 4 8.5l6.3-7.8 12.6-16z"/><g fill="#FFF"><path opacity=".3" d="M10.8 24.4v6c0 2.6 1.4 5 3.3 7 4.4 4.5 11.4 7.5 11.4 7.5V24.3H10.8z"/><path opacity=".7" d="M25.3 45S40 38.4 40 30.4v-6H25.2v20.4zM25.3 5s-2 5-14.6 5v14.4h14.6V5z"/><path opacity=".3" d="M35.5 10C26.8 9 25.3 5 25.3 5v19.2H40V10h-4.5z"/></g><g fill="#3E3E3E"><path d="M20.3 29.3h-1.8L14 22c-.3 0-.4-.3-.4-.5v7.8H12v-10h2l4.4 7.2.4.6V19.5h1.5v10zM22.3 29V27l.5.4.7.2.7.2h.6c.7 0 1.2 0 1.6-.3s.5-.5.5-1l-.3-.6-.5-.3-.7-.4-1-.5c-.2 0-.5-.3-.8-.5l-.7-.6-.5-.7-.2-1c0-.5 0-1 .3-1.2l.8-1 1.2-.4H26c1 0 1.7 0 2 .2v1.6c-.4-.4-1-.6-2-.6h-.7l-.7.3-.4.3-.2.6v.5l.5.4.7.3 1 .4.8.6.8.6.6.7.2 1c0 .5 0 1-.3 1.3l-.8.8-1.2.5H23.4c-.2 0-.4 0-.7-.2h-.5zM38 28.6c-1 .5-2 .8-3.4.8S32 29 31 28s-1.3-2-1.3-3.5.5-2.8 1.5-3.8 2.2-1.4 3.8-1.4c1 0 2 0 2.7.5v1.6c-.7-.5-1.6-.7-2.7-.7-1 0-2 .3-2.5 1-.7.7-1 1.6-1 2.7 0 1 .2 2 .8 2.6.6.7 1.4 1 2.4 1 .6 0 1.2 0 1.7-.4v-2.3h-2V24H38v4.6z"/></g></svg>