<svg xmlns="http://www.w3.org/2000/svg" width="50" height="50" viewBox="0 0 50 50"><path fill="#3999C6" d="M25 22.6h-.2L10 14v-.3-.4L24.8 5c.2-.2.3-.2.5 0L40 13.3v.8l-14.7 8.4H25"/><path fill="#59B4D9" d="M23 43.3h-.3L8 34.7l-.2-.4v-17c0-.2 0-.3.2-.4h.5l14.7 8.5.2.4v16.8c0 .2 0 .3-.2.4H23M27 43.3c-.3-.2-.4-.3-.4-.5V26c0-.2 0-.3.3-.4L41.4 17h.5l.2.5v17s0 .2-.2.3l-14.7 8.4H27"/><path opacity=".5" fill="#FFF" d="M27 43.3c-.3-.2-.4-.3-.4-.5V26c0-.2 0-.3.3-.4L41.4 17h.5l.2.5v17s0 .2-.2.3l-14.7 8.4H27"/><path fill="#7A7A7A" d="M9.6 45.2c-.3 0-.5 0-.8-.2L2 41c-1.2-.6-2-2-2-3.4V12.4C0 11 .8 9.6 2 9l6.8-4c.7-.4 1.6 0 2 .6.4.7.2 1.5-.5 2l-7 4s-.4.5-.4.8v25.2c0 .3.2.8.4 1l7 4c.6.3.8 1 .4 1.8-.3.5-.7.8-1.2.8zM40.4 4.8c.3 0 .5 0 .8.2L48 9c1.2.6 2 2 2 3.4v25.2c0 1.3-.8 2.8-2 3.4l-6.8 4c-.7.4-1.6 0-2-.6-.4-.7-.2-1.5.5-2l7-4s.4-.5.4-.8V12.4c0-.3-.2-.8-.4-1l-7-4c-.6-.3-.8-1-.4-1.8.3-.5.7-.8 1.2-.8z"/></svg>