<svg xmlns="http://www.w3.org/2000/svg" width="50px" height="50px" viewBox="-.5 .5 50 50"><path fill="#0072C6" d="M5.76 7.29v36.1c0 3.76 8.39 6.8 18.74 6.8V7.29H5.76z"/><path fill="#0072C6" d="M24.24 50.19h.26c10.35 0 18.74-3.04 18.74-6.8V7.3h-19v42.9z"/><path opacity="0.15" fill="#FFF" d="M24.24 50.19h.26c10.35 0 18.74-3.04 18.74-6.8V7.3h-19v42.9z"/><path fill="#FFF" d="M43.24 7.29c0 3.75-8.39 6.79-18.74 6.79S5.76 11.04 5.76 7.28 14.15.5 24.5.5s18.74 3.04 18.74 6.79"/><path fill="#7FBA00" d="M39.41 6.9c0 2.47-6.67 4.48-14.91 4.48S9.59 9.38 9.59 6.9c0-2.48 6.67-4.48 14.91-4.48s14.91 2 14.91 4.48"/><path fill="#B8D432" d="M36.29 9.63c1.95-.75 3.12-1.7 3.12-2.73 0-2.48-6.67-4.48-14.91-4.48-8.23 0-14.91 2-14.91 4.48 0 1.03 1.17 1.98 3.12 2.73C15.44 8.58 19.7 7.9 24.5 7.9c4.8 0 9.06.69 11.79 1.74"/><path fill="#FFF" d="M18.55 32.35c0 1.13-.41 2-1.22 2.61-.82.62-1.94.92-3.38.92a6.42 6.42 0 0 1-3.06-.66V32.6c.95.8 1.99 1.2 3.13 1.2.55 0 .97-.11 1.27-.33s.45-.51.45-.88c0-.35-.14-.66-.43-.93s-.88-.6-1.76-1.02c-1.8-.85-2.7-2-2.7-3.46 0-1.06.39-1.92 1.17-2.56a4.81 4.81 0 0 1 3.14-.96c1.15 0 2.1.15 2.87.46v2.46c-.8-.55-1.7-.82-2.72-.82-.52 0-.92.1-1.22.32-.3.22-.44.51-.44.87 0 .38.12.68.36.92s.73.54 1.47.89a7.3 7.3 0 0 1 2.36 1.6c.47.53.7 1.2.7 2zM31.27 29.68c0 1.4-.31 2.6-.94 3.62a5.06 5.06 0 0 1-2.68 2.16l3.43 3.17h-3.46l-2.45-2.75c-1.05-.03-2-.31-2.84-.83-.85-.51-1.5-1.22-1.96-2.12s-.69-1.9-.69-3c0-1.24.25-2.33.75-3.29a5.3 5.3 0 0 1 2.1-2.21c.9-.52 1.93-.78 3.1-.78a5.7 5.7 0 0 1 2.93.75c.86.5 1.52 1.22 2 2.14.48.92.71 1.97.71 3.14zm-2.8.15c0-1.2-.26-2.14-.78-2.84s-1.24-1.04-2.15-1.04a2.7 2.7 0 0 0-2.22 1.04c-.55.7-.83 1.63-.83 2.79 0 1.16.27 2.08.82 2.77a2.62 2.62 0 0 0 2.16 1.03c.92 0 1.65-.33 2.19-1 .54-.67.81-1.58.81-2.75zM40.27 35.68h-7.04V23.85h2.66v9.67h4.38z"/></svg>