<svg xmlns="http://www.w3.org/2000/svg" width="50" height="50" viewBox="0 0 50 50"><path fill="#3999C6" d="M49.7 25.7c.5-.5.4-1.3 0-1.8l-2.4-2.5L36.5 11c-.5-.5-1.2-.5-1.7 0s-.6 1.3 0 1.8l11.3 11c.6.6.6 1.4 0 2L34.7 37c-.5.5-.5 1.3 0 1.8s1.3.4 1.7 0L47 28.4l2.7-2.7zM.3 25.7c-.5-.5-.4-1.3 0-1.8l2.4-2.5L13.5 11c.5-.5 1.2-.5 1.7 0s.6 1.3 0 1.8l-11 11c-.6.6-.6 1.4 0 2L15.3 37c.5.5.5 1.3 0 1.8s-1.3.4-1.7 0l-11-10.5-2.4-2.8z"/><path fill="#7FBA00" d="M28.4 24.8c0 2-1.6 3.3-3.3 3.3-1.6 0-3.4-1.5-3.4-3.2s1.4-3.3 3.5-3.3c2 0 3.4 1.6 3.4 3.3z"/></svg>