<svg xmlns="http://www.w3.org/2000/svg" width="50" height="50" viewBox="0 0 50 50"><path fill="#7A7A7A" d="M32.4 38.5H18.8c1.7 5.8-.5 6.6-10 6.6v3h32.5v-3c-9.6 0-10.5-.7-9-6.5"/><path fill="#A0A1A2" d="M47 2H2.7C1.2 2 0 3.3 0 4.8v31c0 1.4 1.2 2.7 2.7 2.7H47c1.5 0 3-1.3 3-2.8v-31C50 3.4 48.5 2 47 2"/><path opacity=".2" fill="#FFF" d="M47 2H2.7C1.2 2 0 3.3 0 4.8v31c0 1.4 1.2 2.7 2.7 2.7h1L47 2z"/><path fill="#59B4D9" d="M46 5.8v29H4v-29"/><path fill="#59B4D9" d="M3.8 34.7v-29h38.7H3.8"/><path fill="#A0A1A2" d="M8.7 45h32.7v3H8.7z"/><path fill="#B8D432" d="M25.5 4c0 .5-.3.8-.7.8-.4 0-.7-.3-.7-.7 0-.3.4-.6.8-.6s.7.3.7.7"/><path fill="#FFF" d="M25.5 19.4l-9-5V14v-.2l9-5 9 5v.6l-8.8 5h-.2"/><path opacity=".7" fill="#FFF" d="M24.3 31.7H24l-8.6-5-.2-.3V16.2l.2-.2h.2l8.8 5v10.7"/><path opacity=".4" fill="#FFF" d="M26.8 31.7h-.2V21.5 21l8.8-5h.3V26.7l-8.8 5h-.2"/></svg>