<svg xmlns="http://www.w3.org/2000/svg" width="50" height="50" viewBox="0 0 50 50"><path fill="#A0A1A2" d="M35.7 0H2C1 0 0 1 0 2.2v23.4c0 1 1 2 2 2h33.7c1.2 0 2.3-1 2.3-2V2.2C38 1 37 0 35.7 0"/><path opacity=".2" fill="#FFF" d="M35.7 0H2C1 0 0 1 0 2.2v23.4c0 1 1 2 2 2h1L35.6 0z"/><path fill="#59B4D9" d="M35 24.8H3v-22h32"/><path fill="#B8D432" d="M19.4 1.6c0 .3-.2.5-.5.5-.4 0-.7 0-.7-.4 0-.3.3-.5.6-.5.2 0 .4.3.4.6"/><path fill="#FFF" d="M19.4 13.2l-6.8-4V9l6.7-4h.2l6.7 4v.2l-6.7 4"/><path fill="#A0A1A2" d="M41.7 7.5H8c-1 0-2 1-2 2v23.6c0 1.2 1 2.2 2 2.2h33.7c1 0 2.3-1 2.3-2V9.5c0-1-1.2-2-2.3-2"/><path opacity=".2" fill="#FFF" d="M41.7 7.5H8c-1 0-2 1-2 2v23.6c0 1.2 1 2.2 2 2.2h.8l33-27.7z"/><path fill="#59B4D9" d="M41 32.3H9v-22H41"/><path fill="#B8D432" d="M25.4 9c0 .3-.3.6-.6.6s-.5-.3-.5-.6.2-.5.5-.5.6.2.6.5"/><path fill="#FFF" d="M25.4 20.7l-6.8-4v-.3l6.6-3.8h.2l6.7 4h.2v.2l-6.7 3.8"/><path fill="#7A7A7A" d="M36.6 42.7H26.3c1.2 4.4-.4 5-7.7 5V50H43.3v-2.3c-7.3 0-8-.6-6.8-5"/><path fill="#A0A1A2" d="M47.7 15H14c-1 0-2 1-2 2v23.6c0 1 1 2 2 2h33.7c1 0 2.3-1 2.3-2V17c0-1-1.2-2-2.3-2"/><path opacity=".2" fill="#FFF" d="M47.7 15H14c-1 0-2 1-2 2v23.6c0 1 1 2 2 2h.8l33-27.6z"/><path fill="#59B4D9" d="M47 39.8H15v-22h32"/><path fill="#A0A1A2" d="M18.6 47.7h25V50h-25z"/><path fill="#B8D432" d="M31.4 16.5c0 .3-.3.6-.6.6s-.5-.2-.5-.5.2-.5.5-.5.6.2.6.5"/><path fill="#FFF" d="M31.4 28.2l-6.8-4v-.3l6.7-4h.2l6.7 4v.3L31.5 28v.2"/><path opacity=".7" fill="#FFF" d="M30.4 37.5l-6.7-3.8v-7.9-.2h.2l6.5 3.8v8.1"/><path opacity=".4" fill="#FFF" d="M32.3 37.5s-.2 0-.2-.2v-7.6l.2-.2 6.7-3.8h.2v8l-6.8 3.8"/></svg>