<svg xmlns="http://www.w3.org/2000/svg" width="50px" height="50px"><path fill="#3E3E3E" d="M29 47c0 2-1 3-2 3H3c-2 0-3-1-3-3V3c0-2 1-3 3-3h24c1 0 2 1 2 3v44z"/><path fill="#1E1E1E" d="M4 27c0-2 2-3 4-3h14c2 0 3 1 3 3s-1 3-3 3H8c-2 0-4-1-4-3z"/><circle fill="#B8D432" cx="7.643" cy="27.024" r="2.142"/><path fill="#1E1E1E" d="M4 18c0-2 2-4 4-4h14c2 0 3 2 3 4 0 1-1 3-3 3H8c-2 0-4-2-4-3z"/><circle fill="#B8D432" cx="7.643" cy="17.545" r="2.142"/><path fill="#1E1E1E" d="M4 8c0-2 2-3 4-3h14c2 0 3 1 3 3s-1 3-3 3H8c-2 0-4-1-4-3z"/><circle fill="#B8D432" cx="7.643" cy="8.065" r="2.142"/><path fill="#59B4D9" d="M50 45a5 5 0 0 0-5-4v-3c0-7-5-13-12-13-5 0-10 4-12 9l-2-1c-5 0-9 4-9 9 0 4 4 8 9 8h27c2 0 4-2 4-5"/><path opacity="0.2" fill="#FFF" d="M23 50a8 8 0 0 1 4-14h3c0-5 3-8 7-10a12 12 0 0 0-16 8l-2-1c-5 0-9 4-9 9 0 4 4 8 9 8h4z"/></svg>