<?xml version="1.0" encoding="utf-8"?>
<!-- Generator: Adobe Illustrator 18.1.0, SVG Export Plug-In . SVG Version: 6.00 Build 0)  -->
<!DOCTYPE svg PUBLIC "-//W3C//DTD SVG 1.0//EN" "http://www.w3.org/TR/2001/REC-SVG-20010904/DTD/svg10.dtd">
<svg width="400" height="300" xmlns="http://www.w3.org/2000/svg" xmlns:svg="http://www.w3.org/2000/svg">
 <title>Microsoft Azure</title>
 <g>
  <title>Layer 1</title>
  <g stroke="null" id="Layer_1">
   <g stroke="null" id="Azure">
    <g stroke="null" id="svg_1">
     <path stroke="null" fill="#7b68ee" d="m230.178795,163.283792c-8.268161,0 -15.296098,4.904786 -18.603362,11.853234l-118.234703,0l0,0c-19.843587,0 -36.379908,-15.940555 -36.379908,-35.968433s16.122915,-35.968433 36.379908,-35.968433l0,0l0.413408,0l0,0l16.122915,0c0.826816,-4.087323 2.067041,-8.174644 3.720672,-11.853234c0.826816,-1.226196 1.240224,-2.861125 2.067041,-4.087323c8.268161,-14.305628 23.977667,-23.706467 41.754213,-23.706467c16.122915,0 30.178787,7.765912 38.860357,19.210413c4.960897,-2.452393 10.335202,-4.087323 15.709506,-5.313518c-11.575426,-17.984217 -31.419012,-29.837451 -54.569864,-29.837451c-26.871523,0 -50.022374,16.349287 -59.530759,39.647023c0,0 0,0 0,0.408732l0,0c0,0 0,0 0,-0.408732l-4.547489,0c-28.938564,0.408732 -52.502823,23.706467 -52.502823,52.317721s23.564259,51.908989 52.502823,51.908989l118.648112,0c3.307264,6.948448 10.335202,11.853234 18.603362,11.853234c11.162018,0 20.256995,-8.992109 20.256995,-20.027878c-0.413408,-11.035769 -9.508385,-20.027878 -20.670403,-20.027878l0,0.000003z" id="svg_2"/>
     <path stroke="null" fill="#7b68ee" d="m293.016819,252.387411c35.553092,0 66.145289,-29.837451 66.145289,-64.988419s-28.525156,-63.353491 -64.078248,-63.762223c-11.988833,-23.706467 -36.379908,-39.647023 -64.905064,-39.647023c-34.726277,0 -63.664841,24.115199 -70.692777,55.996311c-16.94973,1.634929 -31.419012,10.627037 -40.513989,23.297735l86.402284,0c5.787713,-7.35718 14.88269,-11.853234 25.217892,-11.853234c17.776546,0 32.245828,14.305628 32.245828,31.881111s-14.469282,31.881111 -32.245828,31.881111c-10.335202,0 -19.016771,-4.496055 -25.217892,-11.853234l-96.324077,0c3.720672,26.976326 25.6313,49.047864 54.156456,49.047864l129.810128,0l-0.000001,0.000001z" id="svg_3"/>
    </g>
   </g>
  </g>
  <g id="paths">
   <g id="Access_control"/>
   <g id="Azure_active_directory"/>
   <g id="API_Management"/>
   <g id="Azure_automation"/>
  </g>
 </g>
</svg>